# xmcd
#
# Track frame offsets: 
#        150
#        17661
#        29629
#        48985
#        62697
#        76573
#        90118
#        101540
#        112755
#        125043
#        134430
#        146840
#        160053
#        172213
#        186130
#        198107
#        211408
#        222809
#        234447
#        248102
#        261873
#        273279
#
# Disc length: 3834 seconds
#
# Revision: 0
# Processed by: cddbd v1.5.2PL0 Copyright (c) Steve Scherf et al.
# Submitted via: ExactAudioCopy v0.99pb3
#
DISCID=2d0ef816
DTITLE=Various Artist - Remember DISC1
DYEAR=2003
DGENRE=Blues
TTITLE0=Atlantic Starr/Always
TTITLE1=Freddt Fender/Before The Next Teardrop Falls
TTITLE2=LOBO/I Love You To Want Me
TTITLE3=Percy Sledge/When A Man Loves A Woman
TTITLE4=Ben E.King/Stand By Me
TTITLE5=BJ. Thomas/Raindrops Keep Falling On My Head
TTITLE6=Bobby Vee/More Than I Can Say
TTITLE7=Skeeter Davies/The End Of The World
TTITLE8=Phil Phillips/Sea Of Love
TTITLE9=Wayne Fontana/A Groovy Kind Of Love
TTITLE10=The Platters/Smoke Gets In Your Eyes
TTITLE11=Ray Peterson/Tell Laura I Love Her
TTITLE12=Pat Boone/Speedy Gonzales
TTITLE13=Daniel Boone/Beautiful Sunday
TTITLE14=Sammi Smiths/Help Me Make It Through The Night
TTITLE15=Charlie Rich/The Most Beautiful Girl
TTITLE16=Chubby Checker/Limbo Rock
TTITLE17=Paul&Paula/Hey Paula
TTITLE18=Iynn Anserson/Rose Garden
TTITLE19=Patti Page/Tennessee Waltz
TTITLE20=Johnny Tillotson/Poetry In Motion
TTITLE21=Sue Thompson/Sad Movies
EXTD=
EXTT0=
EXTT1=
EXTT2=
EXTT3=
EXTT4=
EXTT5=
EXTT6=
EXTT7=
EXTT8=
EXTT9=
EXTT10=
EXTT11=
EXTT12=
EXTT13=
EXTT14=
EXTT15=
EXTT16=
EXTT17=
EXTT18=
EXTT19=
EXTT20=
EXTT21=
PLAYORDER=
